<?xml version="1.0" standalone="no"?>
<!DOCTYPE svg PUBLIC "-//W3C//DTD SVG 20010904//EN"
 "http://www.w3.org/TR/2001/REC-SVG-20010904/DTD/svg10.dtd">
<svg version="1.0" xmlns="http://www.w3.org/2000/svg"
 width="187.000000pt" height="300.000000pt" viewBox="0 0 187.000000 300.000000"
 preserveAspectRatio="xMidYMid meet">
<metadata>
Created by potrace 1.10, written by Peter Selinger 2001-2011
</metadata>
<g transform="translate(0.000000,300.000000) scale(0.100000,-0.100000)"
fill="#000000" stroke="none">
<path d="M363 2955 c-45 -23 -142 -77 -217 -120 l-136 -76 0 -972 0 -972 706
-405 c388 -223 712 -404 721 -402 9 2 107 54 217 116 l201 113 5 972 c3 643 2
975 -5 981 -12 9 -1335 769 -1381 793 -30 15 -32 15 -111 -28z m468 -206 c773
-445 935 -537 962 -550 15 -7 27 -15 27 -20 0 -4 -66 -43 -147 -88 -82 -44
-166 -91 -188 -105 l-40 -23 -295 169 c-162 94 -474 273 -692 398 l-397 228
187 105 c103 58 190 105 193 106 3 1 178 -99 390 -220z m-696 -62 c16 -15 -68
29 -90 48 -11 9 3 4 30 -11 28 -15 55 -32 60 -37z m382 -245 c258 -148 561
-322 676 -388 l207 -119 0 -934 c0 -742 -3 -932 -12 -928 -34 13 -1344 770
-1350 780 -9 15 -11 1841 -1 1850 3 4 8 7 10 7 1 0 213 -121 470 -268z m208
-95 c16 -15 -68 29 -90 48 -11 9 3 4 30 -11 28 -15 55 -32 60 -37z m453 -256
c39 -23 72 -44 72 -47 0 -3 -15 3 -32 14 -18 11 -70 41 -115 67 -46 26 -83 49
-83 52 0 3 19 -6 43 -20 23 -13 75 -43 115 -66z m660 -887 l-3 -946 -183 -104
c-101 -57 -188 -104 -194 -104 -6 0 -7 7 -4 16 3 9 6 435 6 947 l0 932 83 44
c45 25 127 71 182 103 55 32 103 58 108 58 4 0 6 -426 5 -946z m-399 -222 c0
-526 -3 -952 -5 -947 -8 19 -9 1913 -1 1908 4 -2 7 -435 6 -961z"/>
<path d="M90 2598 c-19 -21 -20 -34 -20 -248 0 -222 1 -228 23 -251 28 -31
488 -319 509 -319 8 0 23 9 34 21 17 19 19 41 22 243 3 217 3 222 -20 255 -13
19 -40 43 -61 54 l-38 20 -25 -23 c-23 -22 -24 -29 -24 -141 0 -119 -7 -142
-35 -119 -12 10 -15 39 -15 127 0 130 -8 152 -72 184 l-38 20 -25 -25 c-22
-23 -25 -33 -25 -106 0 -44 -4 -80 -9 -80 -23 0 -30 36 -33 177 -3 146 -4 152
-28 178 -25 27 -70 55 -89 55 -6 0 -19 -10 -31 -22z m88 -49 c22 -14 23 -17
21 -179 l-1 -165 54 -37 c29 -20 56 -37 61 -38 4 0 7 59 7 130 l0 130 40 -26
40 -27 0 -131 1 -131 64 -41 65 -42 0 174 0 173 45 -27 44 -27 1 -238 c0 -131
-4 -237 -8 -235 -4 2 -119 73 -255 158 l-247 155 0 234 0 233 23 -14 c12 -8
32 -21 45 -29z"/>
<path d="M90 2008 c-19 -21 -20 -34 -20 -246 0 -224 0 -225 25 -257 l24 -32
-24 -23 -25 -23 0 -273 0 -272 35 -31 c75 -65 125 -45 125 50 0 26 4 51 10 54
5 3 85 -39 176 -94 91 -56 174 -101 184 -101 34 0 50 33 50 102 0 62 -2 68
-33 94 -18 16 -110 76 -204 133 -113 69 -173 111 -177 125 -3 12 -6 54 -6 94
0 40 -5 82 -11 93 -10 19 -9 20 13 8 13 -6 91 -54 175 -105 171 -105 195 -115
223 -89 19 17 20 32 20 255 l0 238 -40 36 c-44 40 -78 46 -103 18 -14 -15 -17
-41 -17 -133 0 -126 -7 -151 -34 -124 -13 13 -16 38 -16 129 0 128 -9 149 -76
181 -35 16 -36 16 -60 -6 -21 -20 -24 -31 -24 -100 0 -84 -10 -102 -34 -67
-13 18 -16 52 -16 168 l0 146 -27 26 c-30 27 -65 48 -82 48 -6 0 -19 -10 -31
-22z m85 -47 c19 -12 20 -21 17 -179 l-3 -167 58 -35 c31 -19 61 -36 65 -38 5
-2 8 55 8 127 l0 131 40 -26 40 -27 0 -131 1 -131 57 -35 c31 -19 60 -37 65
-39 5 -2 7 74 5 168 -2 94 -2 171 0 171 2 0 21 -10 42 -22 l39 -23 3 -240 c2
-132 3 -241 3 -242 0 0 -114 69 -252 155 l-253 157 0 234 0 233 23 -14 c12 -8
31 -21 42 -27z m-18 -555 l36 -25 -2 -103 -1 -103 200 -120 c110 -66 204 -122
209 -125 9 -5 22 -140 13 -140 -2 0 -96 56 -208 125 -111 69 -205 125 -209
125 -3 0 -5 -45 -3 -100 2 -55 2 -100 0 -100 -2 0 -21 10 -42 23 l-40 22 0
257 c0 141 -3 263 -6 272 -9 23 12 20 53 -8z"/>
<path d="M1635 1866 c-30 -30 -47 -90 -35 -122 13 -33 52 -32 79 2 67 85 28
192 -44 120z"/>
<path d="M1633 1595 c-17 -7 -36 -22 -42 -34 -8 -13 -11 -218 -11 -650 0 -559
2 -631 16 -645 8 -9 19 -16 24 -16 20 0 66 23 88 42 l22 21 0 637 c0 481 -3
639 -12 648 -16 16 -45 15 -85 -3z m55 -648 c2 -602 2 -607 -19 -628 -11 -11
-26 -18 -32 -16 -9 3 -13 153 -15 612 -2 560 -1 610 15 627 9 10 24 17 32 16
14 -3 16 -69 19 -611z"/>
</g>
</svg>
